<svg id="Layer_1" data-name="Layer 1" xmlns="http://www.w3.org/2000/svg" viewBox="0 0 500 500"><defs><style>.cls-1{fill:#231f20;}.cls-2{fill:#fff;}</style></defs><rect class="cls-1" width="500" height="500"/><path class="cls-2" d="M341.63,170.45a277.72,277.72,0,0,0-18-35.13l-38.24,91.34,55.34-55.34A12.06,12.06,0,0,1,341.63,170.45Z"/><path class="cls-2" d="M274.88,251.82l-27,64.48-21-50.24-25,25,7.87,18.8c21.08,50.34,55.24,50.34,76.31,0l33.68-80.46Z"/><path class="cls-2" d="M152.74,173.71l40.9,97.7L223,256.75,172.13,135.32a281,281,0,0,0-19.39,38.39Z"/><path class="cls-2" d="M219.8,263.63,125.16,311,77.59,263.38l47.57-95.15L30,263.38l95.14,95.14,94.9-94.89Z"/><path class="cls-2" d="M280.2,241.26l94.64-47.32,47.57,47.57-47.57,95.15L470,241.51l-95.14-95.14-94.9,94.89Z"/></svg>